# xmcd
# Copyright (C) 1995-1998 Ti Kan
#
# Track frame offsets:
#       150
#       58452
#       121640
#       154660
#       186045
#       226477
#       273772
#
# Disc length: 4671 seconds
#
# Revision: 0
# Processed by: cddbd v1.5.2PL0 Copyright (c) Steve Scherf et al.
# Submitted via: CD-Import v1.0
#
DISCID=56123d07
DTITLE=Dominik Blum - Hermann Meier - Works For Solo Piano
DYEAR=00
DGENRE=
TTITLE0=Klavierstück 1968 "charles Dobler"
TTITLE1=Klavierstück No. 1 "lilo Mathys"
TTITLE2=Klavierstück Für Urs Peter Schneider
TTITLE3=Sonate Für Klavier 1
TTITLE4=Sonate Für Klavier 2
TTITLE5=Sonate Für Klavier 3
TTITLE6=Klaviervariationen "hermann Gattiker"
EXTD=
EXTT0=
EXTT1=
EXTT2=
EXTT3=
EXTT4=
EXTT5=
EXTT6=
PLAYORDER=
